<svg id="Camada_1" data-name="Camada 1" xmlns="http://www.w3.org/2000/svg" width="100" height="100" viewBox="0 0 100 100"><title>Barragem_025</title><polygon points="35.3 87 1 87 1 80.3 35.3 80.3 35.3 87" fill="#fecb38"/><path d="M35.4248,87.125H.875v-6.95h34.55Zm-34.3-.25h34.05v-6.45H1.125Z"/><polygon points="35.3 76.8 1 76.8 1 70.1 35.3 70.1 35.3 76.8" fill="#fecb38"/><path d="M35.4248,76.9248H.875v-6.95h34.55Zm-34.3-.25h34.05v-6.45H1.125Z"/><polygon points="35.3 66.6 1 66.6 1 59.9 35.3 59.9 35.3 66.6" fill="#fecb38"/><path d="M35.4248,66.7246H.875V59.7754h34.55Zm-34.3-.25h34.05V60.0254H1.125Z"/><polygon points="35.3 56.4 1 56.4 1 49.7 35.3 49.7 35.3 56.4" fill="#fecb38"/><path d="M35.4248,56.5254H.875v-6.95h34.55Zm-34.3-.25h34.05v-6.45H1.125Z"/><path d="M48.2,15.6a4.06,4.06,0,0,0-3.8-2.5H38.9V87H65Z" fill="#fecb38"/><path d="M65.1582,87.125H38.7749v-74.15H44.4a4.1639,4.1639,0,0,1,3.9165,2.5786l.0054.0176Zm-26.1333-.25H64.8418L48.0806,15.6377A3.9149,3.9149,0,0,0,44.4,13.2251h-5.375Z"/><polygon points="35.3 46.2 1 46.2 1 39.5 35.3 39.5 35.3 46.2" fill="#fecb38"/><path d="M35.4248,46.3252H.875v-6.95h34.55Zm-34.3-.25h34.05v-6.45H1.125Z"/><polygon points="35.3 36.1 1 36.1 1 29.4 35.3 29.4 35.3 36.1" fill="#fecb38"/><path d="M35.4248,36.2251H.875v-6.95h34.55Zm-34.3-.25h34.05v-6.45H1.125Z"/><polygon points="35.3 25.9 1 25.9 1 19.2 35.3 19.2 35.3 25.9" fill="#fecb38"/><path d="M35.4248,26.0249H.875v-6.95h34.55Zm-34.3-.25h34.05v-6.45H1.125Z"/><path d="M67.25,81.1a7.5687,7.5687,0,0,0,1.5.1,9.0928,9.0928,0,0,0,3.7-.8,8.5985,8.5985,0,0,1,3.9-.9,7.9006,7.9006,0,0,1,3.8.9,8.9563,8.9563,0,0,0,7.4,0,8.4893,8.4893,0,0,1,3.8-.9,8.5985,8.5985,0,0,1,3.9.9,9.0928,9.0928,0,0,0,3.7.8v5.6a9.0928,9.0928,0,0,1-3.7-.8,8.5985,8.5985,0,0,0-3.9-.9,7.9006,7.9006,0,0,0-3.8.9,9.4645,9.4645,0,0,1-3.7.8,9.0928,9.0928,0,0,1-3.7-.8,8.4893,8.4893,0,0,0-3.8-.9,8.5985,8.5985,0,0,0-3.9.9,9.0928,9.0928,0,0,1-3.7.8h-.2Z" fill="#fecb38"/><path d="M99.0752,86.9248H98.95a9.2676,9.2676,0,0,1-3.752-.8105,8.5227,8.5227,0,0,0-3.8486-.89,7.837,7.837,0,0,0-3.74.8848,9.5041,9.5041,0,0,1-3.76.8154,9.2665,9.2665,0,0,1-3.751-.8105,8.4228,8.4228,0,0,0-3.749-.89,8.5179,8.5179,0,0,0-3.8437.8877,9.2755,9.2755,0,0,1-3.7559.8125h-.3L67.085,80.9385l.1894.039a7.5106,7.5106,0,0,0,1.4756.0977,9.0044,9.0044,0,0,0,3.6484-.7891A8.7575,8.7575,0,0,1,76.35,79.375a7.956,7.956,0,0,1,3.86.916,8.8334,8.8334,0,0,0,7.288-.0049,8.8049,8.8049,0,0,1,7.8077.003,9.0118,9.0118,0,0,0,3.6445.7861h.125ZM76.35,84.9746a8.6724,8.6724,0,0,1,3.8565.9131,8.9951,8.9951,0,0,0,3.6435.7871,9.2714,9.2714,0,0,0,3.6524-.79,8.06,8.06,0,0,1,3.8476-.91,8.7742,8.7742,0,0,1,3.9561.9131,9.0045,9.0045,0,0,0,3.5195.7861v-5.35a9.271,9.271,0,0,1-3.627-.81,8.5121,8.5121,0,0,0-3.8486-.89,8.4162,8.4162,0,0,0-3.7441.8867,9.0806,9.0806,0,0,1-7.5069.0029,7.7252,7.7252,0,0,0-3.749-.89,8.5183,8.5183,0,0,0-3.8437.8867,9.26,9.26,0,0,1-3.7559.8135,8.7136,8.7136,0,0,1-1.3359-.0693l1.2353,5.4189H68.75a9.0044,9.0044,0,0,0,3.6484-.7891A8.7694,8.7694,0,0,1,76.35,84.9746Z"/><path d="M65.05,70.2a9.4645,9.4645,0,0,0,3.7.8,9.0928,9.0928,0,0,0,3.7-.8,8.5985,8.5985,0,0,1,3.9-.9,7.9006,7.9006,0,0,1,3.8.9,8.9563,8.9563,0,0,0,7.4,0,8.4893,8.4893,0,0,1,3.8-.9,8.5985,8.5985,0,0,1,3.9.9,9.0928,9.0928,0,0,0,3.7.8v5.6a9.0928,9.0928,0,0,1-3.7-.8,8.5985,8.5985,0,0,0-3.9-.9,7.9006,7.9006,0,0,0-3.8.9,9.4645,9.4645,0,0,1-3.7.8,9.0928,9.0928,0,0,1-3.7-.8,8.4893,8.4893,0,0,0-3.8-.9,8.5985,8.5985,0,0,0-3.9.9,9.0928,9.0928,0,0,1-3.7.8,9.8625,9.8625,0,0,1-2.4-.3Z" fill="#fecb38"/><path d="M99.0752,76.7246H98.95a9.2676,9.2676,0,0,1-3.752-.81,8.5161,8.5161,0,0,0-3.8486-.8887,7.7356,7.7356,0,0,0-3.74.8838,9.5041,9.5041,0,0,1-3.76.8154,9.2665,9.2665,0,0,1-3.751-.81,8.56,8.56,0,0,0-7.5927-.002,9.2755,9.2755,0,0,1-3.7559.8125,10.0437,10.0437,0,0,1-2.4307-.3037l-.0761-.0186-.0157-.0761-1.35-6.333.22.0918a9.2706,9.2706,0,0,0,3.6523.79,9.0044,9.0044,0,0,0,3.6484-.7891,8.7575,8.7575,0,0,1,3.9512-.9111,7.956,7.956,0,0,1,3.86.916,8.8334,8.8334,0,0,0,7.288-.0049,8.8049,8.8049,0,0,1,7.8077.003,9.0118,9.0118,0,0,0,3.6445.7861h.125ZM76.35,74.7754a8.6759,8.6759,0,0,1,3.8565.9121,8.9951,8.9951,0,0,0,3.6435.7871,9.2714,9.2714,0,0,0,3.6524-.79,7.9489,7.9489,0,0,1,3.8476-.9092,8.7673,8.7673,0,0,1,3.9561.9121,9.0045,9.0045,0,0,0,3.5195.7861v-5.35a9.2726,9.2726,0,0,1-3.627-.8095,8.5108,8.5108,0,0,0-3.8486-.89,8.4162,8.4162,0,0,0-3.7441.8867,9.0811,9.0811,0,0,1-7.5069.003,7.7241,7.7241,0,0,0-3.749-.89,8.5183,8.5183,0,0,0-3.8437.8867,9.26,9.26,0,0,1-3.7559.8135,9.3652,9.3652,0,0,1-3.5283-.72l1.2334,5.792a9.8055,9.8055,0,0,0,2.2949.2773,9.0044,9.0044,0,0,0,3.6484-.7891A8.7626,8.7626,0,0,1,76.35,74.7754Z"/></svg>